<svg width="45" height="28" viewBox="0 0 45 28" fill="none" xmlns="http://www.w3.org/2000/svg">
<path fill-rule="evenodd" clip-rule="evenodd" d="M8.07187 13.3068L13.6125 18.8474C13.8197 19.0405 13.986 19.2734 14.1013 19.5321C14.2165 19.7909 14.2785 20.0702 14.2835 20.3534C14.2885 20.6366 14.2364 20.918 14.1303 21.1806C14.0243 21.4433 13.8663 21.6819 13.666 21.8822C13.4657 22.0825 13.2271 22.2404 12.9645 22.3465C12.7018 22.4526 12.4205 22.5047 12.1373 22.4997C11.8541 22.4947 11.5747 22.4327 11.316 22.3174C11.0572 22.2021 10.8244 22.0359 10.6313 21.8286L1.49062 12.688L0 11.1974L1.49062 9.70676L10.6313 0.566133C11.0311 0.193533 11.56 -0.00931323 12.1065 0.000328632C12.6529 0.00997049 13.1743 0.231348 13.5608 0.617822C13.9473 1.0043 14.1687 1.52569 14.1783 2.07216C14.1879 2.61864 13.9851 3.14752 13.6125 3.54738L8.07187 9.08801H35.8594C38.2836 9.08801 40.6086 10.051 42.3228 11.7652C44.037 13.4794 45 15.8044 45 18.2286C45 20.6529 44.037 22.9778 42.3228 24.692C40.6086 26.4062 38.2836 27.3693 35.8594 27.3693H30.2344C30 27.3693 29.2027 27.2113 28.7428 26.7514C28.3472 26.3559 28.125 25.8193 28.125 25.2599C28.125 24.7004 28.3472 24.1639 28.7428 23.7683C29.1384 23.3727 29.6749 23.1505 30.2344 23.1505H35.8594C37.1647 23.1505 38.4166 22.632 39.3397 21.7089C40.2627 20.7859 40.7813 19.534 40.7812 18.2286C40.7813 16.9233 40.2627 15.6714 39.3397 14.7483C38.4166 13.8253 37.1647 13.3068 35.8594 13.3068H8.07187Z" fill="white"/>
</svg>
