<svg width="57" height="64" viewBox="0 0 57 64" fill="none" xmlns="http://www.w3.org/2000/svg">
<path d="M30.0167 24.85C29.3667 24.2 28.3167 24.2 27.6667 24.85L21.6833 30.8333C21.5288 30.9875 21.4062 31.1707 21.3226 31.3723C21.239 31.5739 21.1959 31.7901 21.1959 32.0083C21.1959 32.2266 21.239 32.4428 21.3226 32.6444C21.4062 32.846 21.5288 33.0291 21.6833 33.1833L27.6667 39.1667C27.9783 39.4783 28.401 39.6534 28.8417 39.6534C29.2824 39.6534 29.705 39.4783 30.0167 39.1667C30.3283 38.855 30.5034 38.4324 30.5034 37.9917C30.5034 37.551 30.3283 37.1283 30.0167 36.8167L26.8833 33.6667H41.3333C42.25 33.6667 43 32.9167 43 32C43 31.0833 42.25 30.3333 41.3333 30.3333H26.8833L30.0167 27.2C30.6667 26.55 30.65 25.4833 30.0167 24.85ZM16.3333 47H39.6667C40.5507 47 41.3986 46.6488 42.0237 46.0237C42.6488 45.3986 43 44.5507 43 43.6667V38.6667C43 37.75 42.25 37 41.3333 37C40.4167 37 39.6667 37.75 39.6667 38.6667V42C39.6667 42.9167 38.9167 43.6667 38 43.6667H18C17.0833 43.6667 16.3333 42.9167 16.3333 42V22C16.3333 21.0833 17.0833 20.3333 18 20.3333H38C38.9167 20.3333 39.6667 21.0833 39.6667 22V25.3333C39.6667 26.25 40.4167 27 41.3333 27C42.25 27 43 26.25 43 25.3333V20.3333C43 18.5 41.5 17 39.6667 17H16.3333C14.5 17 13 18.5 13 20.3333V43.6667C13 45.5 14.5 47 16.3333 47Z" fill="#351102"/>
</svg>
