<svg width="40" height="40" viewBox="0 0 40 40" fill="none" xmlns="http://www.w3.org/2000/svg">
<path d="M13.3628 3.73633C14.3748 3.14609 15.6263 3.14591 16.6382 3.73633L23.9604 8.00879C24.7045 8.44291 25.6096 8.50321 26.4048 8.17188L32.4165 5.66699C34.5572 4.77498 36.9164 6.34788 36.9165 8.66699V28.4004C36.9165 29.5562 36.3025 30.6255 35.3042 31.208L26.6382 36.2646C25.6262 36.8551 24.3748 36.8541 23.3628 36.2637L16.0396 31.9912C15.2956 31.5572 14.3912 31.497 13.5962 31.8281L7.5835 34.334C5.44295 35.2258 3.08379 33.6528 3.0835 31.334V11.5996C3.08362 10.4439 3.69756 9.37538 4.6958 8.79297L13.3628 3.73633ZM16.3853 8.02734C15.5292 7.5283 14.4707 7.52821 13.6147 8.02734L8.28174 11.1377C7.43676 11.6305 6.9165 12.5355 6.9165 13.5137V26.334C6.91664 28.2961 8.91286 29.6265 10.7241 28.8721L13.6509 27.6533C14.5902 27.262 15.6585 27.3331 16.5376 27.8457L23.6147 31.9727C24.4708 32.4719 25.5291 32.4719 26.3853 31.9727L31.7192 28.8623C32.5639 28.3695 33.0834 27.4652 33.0835 26.4873V13.667C33.0835 11.7047 31.0872 10.3734 29.2759 11.1279L26.3501 12.3477C25.4107 12.7391 24.3415 12.668 23.4624 12.1553L16.3853 8.02734ZM27.5005 21.417C28.3402 21.4171 29.146 21.7509 29.7397 22.3447C30.3334 22.9386 30.6665 23.7443 30.6665 24.584C30.6664 25.4237 30.3335 26.2295 29.7397 26.8232C29.146 27.417 28.3402 27.7499 27.5005 27.75C26.6608 27.75 25.8551 27.4169 25.2612 26.8232C24.6674 26.2295 24.3336 25.4237 24.3335 24.584C24.3335 23.7441 24.6674 22.9386 25.2612 22.3447C25.8551 21.7509 26.6606 21.417 27.5005 21.417ZM16.6665 19.75C17.0823 19.75 17.4943 19.8321 17.8784 19.9912C18.2625 20.1503 18.6117 20.3838 18.9058 20.6777C19.1998 20.9718 19.4331 21.3209 19.5923 21.7051C19.7514 22.0893 19.8335 22.5011 19.8335 22.917C19.8335 23.7568 19.4996 24.5624 18.9058 25.1562C18.3119 25.75 17.5063 26.084 16.6665 26.084C15.8268 26.0839 15.021 25.75 14.4272 25.1562C13.8335 24.5624 13.5005 23.7568 13.5005 22.917C13.5005 22.5011 13.5826 22.0893 13.7417 21.7051C13.9008 21.321 14.1333 20.9717 14.4272 20.6777C14.7212 20.3838 15.0705 20.1503 15.4546 19.9912C15.8387 19.8321 16.2508 19.75 16.6665 19.75ZM27.5005 24.417C27.4563 24.417 27.4136 24.4346 27.3823 24.4658C27.3511 24.4971 27.3335 24.5398 27.3335 24.584C27.3336 24.628 27.3512 24.67 27.3823 24.7012C27.4136 24.7324 27.4563 24.75 27.5005 24.75C27.5446 24.7499 27.5865 24.7323 27.6177 24.7012C27.6489 24.67 27.6664 24.6281 27.6665 24.584C27.6665 24.5398 27.6489 24.4971 27.6177 24.4658C27.5865 24.4347 27.5445 24.4171 27.5005 24.417ZM16.6665 22.75C16.6226 22.7501 16.5805 22.7678 16.5493 22.7988C16.5181 22.8301 16.5005 22.8728 16.5005 22.917C16.5005 22.9612 16.5181 23.0039 16.5493 23.0352C16.5805 23.0661 16.6226 23.0839 16.6665 23.084C16.7106 23.084 16.7534 23.0663 16.7847 23.0352C16.8159 23.0039 16.8335 22.9612 16.8335 22.917C16.8335 22.8728 16.8159 22.8301 16.7847 22.7988C16.7534 22.7677 16.7106 22.75 16.6665 22.75ZM23.3335 13.917C24.1733 13.917 24.9789 14.2509 25.5728 14.8447C26.1665 15.4386 26.5005 16.2442 26.5005 17.084C26.5004 17.9237 26.1665 18.7295 25.5728 19.3232C24.9789 19.917 24.1733 20.25 23.3335 20.25C22.4937 20.25 21.6881 19.917 21.0942 19.3232C20.5005 18.7295 20.1666 17.9237 20.1665 17.084C20.1665 16.2442 20.5005 15.4386 21.0942 14.8447C21.6881 14.2509 22.4936 13.917 23.3335 13.917ZM12.5005 12.25C13.3402 12.2501 14.146 12.5839 14.7397 13.1777C15.3335 13.7716 15.6665 14.5772 15.6665 15.417C15.6665 16.2568 15.3335 17.0624 14.7397 17.6562C14.146 18.25 13.3402 18.5839 12.5005 18.584C11.6607 18.584 10.8551 18.25 10.2612 17.6562C9.66737 17.0624 9.3335 16.2568 9.3335 15.417C9.3335 14.5771 9.66737 13.7716 10.2612 13.1777C10.8551 12.584 11.6607 12.25 12.5005 12.25ZM23.3335 16.917C23.2893 16.917 23.2466 16.9346 23.2153 16.9658C23.1842 16.9971 23.1665 17.0399 23.1665 17.084C23.1666 17.1279 23.1844 17.17 23.2153 17.2012C23.2466 17.2324 23.2893 17.25 23.3335 17.25C23.3777 17.25 23.4204 17.2324 23.4517 17.2012C23.4826 17.17 23.5004 17.1279 23.5005 17.084C23.5005 17.0399 23.4828 16.9971 23.4517 16.9658C23.4204 16.9346 23.3777 16.917 23.3335 16.917ZM12.5005 15.25C12.4564 15.25 12.4136 15.2677 12.3823 15.2988C12.3511 15.3301 12.3335 15.3728 12.3335 15.417C12.3335 15.4612 12.3511 15.5039 12.3823 15.5352C12.4136 15.5663 12.4564 15.584 12.5005 15.584C12.5444 15.5839 12.5865 15.5661 12.6177 15.5352C12.6489 15.5039 12.6665 15.4612 12.6665 15.417C12.6665 15.3728 12.6489 15.3301 12.6177 15.2988C12.5865 15.2678 12.5444 15.2501 12.5005 15.25Z" fill="white" stroke="white" stroke-width="0.5"/>
</svg>
