<svg width="40" height="40" viewBox="0 0 40 40" fill="none" xmlns="http://www.w3.org/2000/svg">
<path d="M5.6001 20.0004L20.4001 6.40039L35.2001 20.0004M9.3001 17.4504V31.9004C9.3001 32.3513 9.49501 32.7837 9.84195 33.1025C10.1889 33.4213 10.6594 33.6004 11.1501 33.6004H16.7001V28.5004C16.7001 28.0495 16.895 27.6171 17.242 27.2983C17.5889 26.9795 18.0594 26.8004 18.5501 26.8004H22.2501C22.7407 26.8004 23.2113 26.9795 23.5582 27.2983C23.9052 27.6171 24.1001 28.0495 24.1001 28.5004V33.6004H29.6501C30.1407 33.6004 30.6113 33.4213 30.9582 33.1025C31.3052 32.7837 31.5001 32.3513 31.5001 31.9004V17.4504" stroke="white" stroke-width="4.5" stroke-linecap="round" stroke-linejoin="round"/>
</svg>
