<svg width="57" height="64" viewBox="0 0 57 64" fill="none" xmlns="http://www.w3.org/2000/svg">
<path d="M14.6 32L29.4 18.4L44.2 32M18.3 29.45V43.9C18.3 44.3509 18.4949 44.7833 18.8418 45.1021C19.1888 45.4209 19.6593 45.6 20.15 45.6H25.7V40.5C25.7 40.0492 25.8949 39.6168 26.2418 39.2979C26.5888 38.9791 27.0593 38.8 27.55 38.8H31.25C31.7406 38.8 32.2112 38.9791 32.5581 39.2979C32.9051 39.6168 33.1 40.0492 33.1 40.5V45.6H38.65C39.1406 45.6 39.6112 45.4209 39.9581 45.1021C40.3051 44.7833 40.5 44.3509 40.5 43.9V29.45" stroke="#351102" stroke-width="4" stroke-linecap="round" stroke-linejoin="round"/>
<path d="M35 18V32M28 25H42" stroke="#098411" stroke-width="5" stroke-linecap="round" stroke-linejoin="round"/>
</svg>
