<svg width="80" height="47" viewBox="0 0 80 47" fill="none" xmlns="http://www.w3.org/2000/svg">
<rect width="80" height="47" rx="23.5" fill="#65B741"/>
<path d="M31.1003 32.1074L38.9552 32.0805L56.0995 14.9548C56.7723 14.2763 57.1426 13.3751 57.1426 12.4165C57.1426 11.4579 56.7723 10.5567 56.0995 9.87817L53.2766 7.03108C51.9309 5.67396 49.5832 5.68114 48.2482 7.0257L31.1003 24.1549V32.1074ZM50.7597 9.56941L53.588 12.4111L50.7455 15.251L47.9225 12.4057L50.7597 9.56941ZM34.6602 25.6521L45.3932 14.9297L48.2162 17.7768L37.485 28.4956L34.6602 28.5045V25.6521Z" fill="black"/>
<path d="M27.5406 39.2646H52.4597C54.4229 39.2646 56.0195 37.6543 56.0195 35.6743V20.114L52.4597 23.7043V35.6743H33.1616C33.1153 35.6743 33.0673 35.6923 33.021 35.6923C32.9623 35.6923 32.9035 35.6761 32.843 35.6743H27.5406V10.5424H39.7278L43.2877 6.95209H27.5406C25.5773 6.95209 23.9807 8.56233 23.9807 10.5424V35.6743C23.9807 37.6543 25.5773 39.2646 27.5406 39.2646Z" fill="black"/>
</svg>
