<svg width="57" height="62" viewBox="0 0 57 62" fill="none" xmlns="http://www.w3.org/2000/svg">
<path d="M22.4881 14.952C23.4223 14.407 24.5776 14.407 25.5118 14.9521L32.8347 19.2247C33.6464 19.6983 34.633 19.7642 35.5005 19.4028L41.5127 16.8975C43.4888 16.0741 45.6666 17.526 45.6666 19.6667V39.4003C45.6666 40.4672 45.1 41.4539 44.1784 41.9915L35.5118 47.0479C34.5776 47.5929 33.4223 47.5929 32.4882 47.0478L25.1653 42.7752C24.3536 42.3016 23.3669 42.2357 22.4995 42.5971L16.4872 45.1024C14.5112 45.9258 12.3333 44.4739 12.3333 42.3332V22.5996C12.3333 21.5327 12.9 20.546 13.8215 20.0084L22.4881 14.952ZM17.1553 21.9218C16.2335 22.4594 15.6666 23.4461 15.6666 24.5133V37.3334C15.6666 39.4741 17.8444 40.926 19.8204 40.1027L22.7466 38.8835C23.6138 38.5222 24.6001 38.588 25.4117 39.0613L32.4886 43.1885C33.4226 43.7332 34.5774 43.7332 35.5113 43.1885L40.8447 40.0781C41.7665 39.5405 42.3333 38.5537 42.3333 37.4866V24.6665C42.3333 22.5258 40.1556 21.0739 38.1795 21.8972L35.2534 23.1163C34.3862 23.4777 33.3998 23.4119 32.5883 22.9386L25.5113 18.8114C24.5774 18.2667 23.4226 18.2667 22.4886 18.8114L17.1553 21.9218ZM21.5 26.8333C21.6105 26.8333 21.7165 26.7894 21.7946 26.7112C21.8727 26.6331 21.9166 26.5271 21.9166 26.4166C21.9166 26.3061 21.8727 26.2001 21.7946 26.122C21.7165 26.0438 21.6105 25.9999 21.5 25.9999C21.3895 25.9999 21.2835 26.0438 21.2054 26.122C21.1272 26.2001 21.0833 26.3061 21.0833 26.4166C21.0833 26.5271 21.1272 26.6331 21.2054 26.7112C21.2835 26.7894 21.3895 26.8333 21.5 26.8333ZM18.5833 26.4166C18.5833 25.6431 18.8906 24.9012 19.4376 24.3542C19.9846 23.8072 20.7264 23.4999 21.5 23.4999C22.2735 23.4999 23.0154 23.8072 23.5624 24.3542C24.1094 24.9012 24.4166 25.6431 24.4166 26.4166C24.4166 27.1902 24.1094 27.932 23.5624 28.479C23.0154 29.026 22.2735 29.3333 21.5 29.3333C20.7264 29.3333 19.9846 29.026 19.4376 28.479C18.8906 27.932 18.5833 27.1902 18.5833 26.4166ZM32.3333 28.4999C32.4438 28.4999 32.5498 28.456 32.6279 28.3779C32.7061 28.2998 32.75 28.1938 32.75 28.0833C32.75 27.9728 32.7061 27.8668 32.6279 27.7887C32.5498 27.7105 32.4438 27.6666 32.3333 27.6666C32.2228 27.6666 32.1168 27.7105 32.0387 27.7887C31.9605 27.8668 31.9166 27.9728 31.9166 28.0833C31.9166 28.1938 31.9605 28.2998 32.0387 28.3779C32.1168 28.456 32.2228 28.4999 32.3333 28.4999ZM29.4166 28.0833C29.4166 27.3097 29.7239 26.5679 30.2709 26.0209C30.8179 25.4739 31.5598 25.1666 32.3333 25.1666C33.1069 25.1666 33.8487 25.4739 34.3957 26.0209C34.9427 26.5679 35.25 27.3097 35.25 28.0833C35.25 28.8568 34.9427 29.5987 34.3957 30.1457C33.8487 30.6927 33.1069 30.9999 32.3333 30.9999C31.5598 30.9999 30.8179 30.6927 30.2709 30.1457C29.7239 29.5987 29.4166 28.8568 29.4166 28.0833ZM25.6666 34.3333C25.7772 34.3333 25.8831 34.2894 25.9613 34.2112C26.0394 34.1331 26.0833 34.0271 26.0833 33.9166C26.0833 33.8061 26.0394 33.7001 25.9613 33.622C25.8831 33.5438 25.7772 33.4999 25.6666 33.4999C25.5561 33.4999 25.4502 33.5438 25.372 33.622C25.2939 33.7001 25.25 33.8061 25.25 33.9166C25.25 34.0271 25.2939 34.1331 25.372 34.2112C25.4502 34.2894 25.5561 34.3333 25.6666 34.3333ZM22.75 33.9166C22.75 33.5336 22.8254 33.1543 22.972 32.8005C23.1186 32.4466 23.3334 32.1251 23.6043 31.8542C23.8751 31.5834 24.1966 31.3685 24.5505 31.222C24.9044 31.0754 25.2836 30.9999 25.6666 30.9999C26.0497 30.9999 26.4289 31.0754 26.7828 31.222C27.1367 31.3685 27.4582 31.5834 27.729 31.8542C27.9999 32.1251 28.2147 32.4466 28.3613 32.8005C28.5079 33.1543 28.5833 33.5336 28.5833 33.9166C28.5833 34.6902 28.276 35.432 27.729 35.979C27.1821 36.526 26.4402 36.8333 25.6666 36.8333C24.8931 36.8333 24.1512 36.526 23.6043 35.979C23.0573 35.432 22.75 34.6902 22.75 33.9166ZM36.5 35.9999C36.6105 35.9999 36.7165 35.956 36.7946 35.8779C36.8727 35.7998 36.9166 35.6938 36.9166 35.5833C36.9166 35.4728 36.8727 35.3668 36.7946 35.2887C36.7165 35.2105 36.6105 35.1666 36.5 35.1666C36.3895 35.1666 36.2835 35.2105 36.2054 35.2887C36.1272 35.3668 36.0833 35.4728 36.0833 35.5833C36.0833 35.6938 36.1272 35.7998 36.2054 35.8779C36.2835 35.956 36.3895 35.9999 36.5 35.9999ZM33.5833 35.5833C33.5833 34.8097 33.8906 34.0679 34.4376 33.5209C34.9846 32.9739 35.7264 32.6666 36.5 32.6666C37.2735 32.6666 38.0154 32.9739 38.5624 33.5209C39.1094 34.0679 39.4166 34.8097 39.4166 35.5833C39.4166 36.3568 39.1094 37.0987 38.5624 37.6457C38.0154 38.1927 37.2735 38.4999 36.5 38.4999C35.7264 38.4999 34.9846 38.1927 34.4376 37.6457C33.8906 37.0987 33.5833 36.3568 33.5833 35.5833Z" fill="#351102"/>
</svg>
