<svg width="40" height="40" viewBox="0 0 40 40" fill="none" xmlns="http://www.w3.org/2000/svg">
<path d="M8.33301 35.25C6.36186 35.2498 4.75018 33.6381 4.75 31.667V8.33301C4.75018 6.36186 6.36186 4.75018 8.33301 4.75H31.667C33.6381 4.75018 35.2498 6.36186 35.25 8.33301V13.333C35.25 14.3877 34.3877 15.25 33.333 15.25C32.2784 15.2498 31.417 14.3876 31.417 13.333V10C31.417 9.2214 30.7786 8.58301 30 8.58301H10C9.2214 8.58301 8.58301 9.2214 8.58301 10V30C8.58301 30.7786 9.2214 31.417 10 31.417H30C30.7786 31.417 31.417 30.7786 31.417 30V26.667C31.417 25.6124 32.2784 24.7502 33.333 24.75C34.3877 24.75 35.25 25.6123 35.25 26.667V31.667C35.2499 32.6172 34.8721 33.5283 34.2002 34.2002C33.5283 34.8721 32.6172 35.2499 31.667 35.25H8.33301ZM20.8418 27.9033C20.3349 27.9033 19.8487 27.7021 19.4902 27.3438L13.5068 21.3604C13.3291 21.183 13.188 20.9722 13.0918 20.7402C12.9956 20.5084 12.9463 20.2598 12.9463 20.0088C12.9463 19.7576 12.9956 19.5084 13.0918 19.2764C13.188 19.0444 13.3291 18.8336 13.5068 18.6562L19.4902 12.6729C20.2378 11.9257 21.4458 11.9256 22.1934 12.6729C22.9227 13.4022 22.9426 14.6277 22.1934 15.377L19.4873 18.083H33.333C34.3877 18.083 35.25 18.9453 35.25 20C35.25 21.0547 34.3877 21.917 33.333 21.917H19.4854L22.1943 24.6406C22.5522 24.999 22.7528 25.4847 22.7529 25.9912C22.7529 26.4982 22.5519 26.9852 22.1934 27.3438C21.8349 27.7021 21.3487 27.9033 20.8418 27.9033Z" fill="white" stroke="white" stroke-width="0.5"/>
</svg>
