<svg width="57" height="65" viewBox="0 0 57 65" fill="none" xmlns="http://www.w3.org/2000/svg">
<path d="M14.6 32.5L29.4 18.9L44.2 32.5M18.3 29.95V44.4C18.3 44.8509 18.4949 45.2833 18.8418 45.6021C19.1888 45.9209 19.6593 46.1 20.15 46.1H25.7V41C25.7 40.5492 25.8949 40.1168 26.2418 39.7979C26.5888 39.4791 27.0593 39.3 27.55 39.3H31.25C31.7406 39.3 32.2112 39.4791 32.5581 39.7979C32.9051 40.1168 33.1 40.5492 33.1 41V46.1H38.65C39.1406 46.1 39.6112 45.9209 39.9581 45.6021C40.3051 45.2833 40.5 44.8509 40.5 44.4V29.95" stroke="#351102" stroke-width="4" stroke-linecap="round" stroke-linejoin="round"/>
</svg>
