<svg width="57" height="65" viewBox="0 0 57 65" fill="none" xmlns="http://www.w3.org/2000/svg">
<g clip-path="url(#clip0_21_297)">
<path d="M23.2252 34.7328L22.9102 34.125H18.2917V35.75H13.9167V27.625H15.375V26H11V25.1875M23.2252 34.7328C21.3045 35.8176 19.6907 37.4736 18.5626 39.5174C17.4344 41.5612 16.8359 43.9131 16.8333 46.3125C16.8333 46.528 16.9102 46.7347 17.0469 46.887C17.1836 47.0394 17.3691 47.125 17.5625 47.125M23.2252 34.7328L23.5898 35.4372M17.5625 47.125C17.7559 47.125 17.9414 47.0394 18.0781 46.887C18.2148 46.7347 18.2917 46.528 18.2917 46.3125C18.294 44.1983 18.8251 42.1266 19.8254 40.33C20.8257 38.5335 22.2555 37.0831 23.9544 36.1416M17.5625 47.125C17.8307 43.3956 19.4116 35.8369 23.5898 35.4372M23.9544 36.1416L25.3719 38.8765H31.7069L33.1069 36.1741M23.9544 36.1416L23.5898 35.4372M33.1069 36.1741C34.7899 37.1225 36.2043 38.5719 37.193 40.3615C38.1818 42.1511 38.7063 44.211 38.7083 46.3125C38.7083 46.528 38.7852 46.7347 38.9219 46.887C39.0586 47.0394 39.2441 47.125 39.4375 47.125M33.1069 36.1741L33.4722 35.4697M39.4375 47.125C39.6309 47.125 39.8164 47.0394 39.9531 46.887C40.0898 46.7347 40.1667 46.528 40.1667 46.3125C40.1646 43.9258 39.573 41.5859 38.4566 39.549C37.3401 37.5122 35.7421 35.8572 33.8375 34.7653M39.4375 47.125C40.4375 42.3892 35.8773 37.3816 33.4722 35.4697M33.8375 34.7653L34.1685 34.125H38.7083V35.75H43.0833V27.625H41.625V26H46V25.1876M33.8375 34.7653L33.4722 35.4697M11 25.1875V24.375H21.2083V25.1875M11 25.1875H16.1042M21.2083 25.1875V26H16.8333V27.625H18.2917V30.875H23.1844L25.3719 26.65H31.7069L33.8958 30.875H38.7083V27.625H40.1667V26H35.7917V25.1875M21.2083 25.1875H16.1042M35.7917 25.1875V24.375H46V25.1876M35.7917 25.1875L40.8958 25.1875M46 25.1876L40.8958 25.1875M40.8958 25.1875V28.3215M16.1042 25.1875V28.3215" stroke="#351102" stroke-width="3"/>
</g>
<defs>
<clipPath id="clip0_21_297">
<rect width="35" height="39" fill="white" transform="translate(11 13)"/>
</clipPath>
</defs>
</svg>
