<svg width="57" height="64" viewBox="0 0 57 64" fill="none" xmlns="http://www.w3.org/2000/svg">
<path d="M25.2083 19.195C25.9183 16.2683 30.0817 16.2683 30.7917 19.195C30.8982 19.6347 31.107 20.043 31.4012 20.3867C31.6953 20.7304 32.0665 20.9998 32.4844 21.1729C32.9024 21.3461 33.3553 21.4181 33.8063 21.3831C34.2573 21.3481 34.6937 21.2072 35.08 20.9717C37.6517 19.405 40.5967 22.3483 39.03 24.9217C38.7948 25.3078 38.6541 25.7439 38.6192 26.1946C38.5843 26.6453 38.6563 27.0979 38.8292 27.5156C39.0022 27.9333 39.2712 28.3043 39.6145 28.5984C39.9579 28.8925 40.3657 29.1015 40.805 29.2083C43.7317 29.9183 43.7317 34.0817 40.805 34.7917C40.3653 34.8982 39.957 35.107 39.6133 35.4012C39.2696 35.6953 39.0002 36.0665 38.8271 36.4844C38.6539 36.9024 38.5819 37.3553 38.6169 37.8063C38.6519 38.2573 38.7928 38.6937 39.0283 39.08C40.595 41.6517 37.6517 44.5967 35.0783 43.03C34.6922 42.7948 34.2561 42.6541 33.8054 42.6192C33.3547 42.5843 32.9021 42.6563 32.4844 42.8292C32.0667 43.0022 31.6957 43.2712 31.4016 43.6145C31.1075 43.9579 30.8985 44.3657 30.7917 44.805C30.0817 47.7317 25.9183 47.7317 25.2083 44.805C25.1018 44.3653 24.893 43.957 24.5988 43.6133C24.3047 43.2696 23.9335 43.0002 23.5156 42.8271C23.0976 42.6539 22.6447 42.5819 22.1937 42.6169C21.7427 42.6519 21.3063 42.7928 20.92 43.0283C18.3483 44.595 15.4033 41.6517 16.97 39.0783C17.2052 38.6922 17.3459 38.2561 17.3808 37.8054C17.4157 37.3547 17.3437 36.9021 17.1708 36.4844C16.9978 36.0667 16.7288 35.6957 16.3855 35.4016C16.0421 35.1075 15.6343 34.8985 15.195 34.7917C12.2683 34.0817 12.2683 29.9183 15.195 29.2083C15.6347 29.1018 16.043 28.893 16.3867 28.5988C16.7304 28.3047 16.9998 27.9335 17.1729 27.5156C17.3461 27.0976 17.4181 26.6447 17.3831 26.1937C17.3481 25.7427 17.2072 25.3063 16.9717 24.92C15.405 22.3483 18.3483 19.4033 20.9217 20.97C22.5883 21.9833 24.7483 21.0867 25.2083 19.195Z" stroke="#351102" stroke-width="4" stroke-linecap="round" stroke-linejoin="round"/>
<path d="M23 32C23 33.3261 23.5268 34.5979 24.4645 35.5355C25.4021 36.4732 26.6739 37 28 37C29.3261 37 30.5979 36.4732 31.5355 35.5355C32.4732 34.5979 33 33.3261 33 32C33 30.6739 32.4732 29.4021 31.5355 28.4645C30.5979 27.5268 29.3261 27 28 27C26.6739 27 25.4021 27.5268 24.4645 28.4645C23.5268 29.4021 23 30.6739 23 32Z" stroke="#351102" stroke-width="4" stroke-linecap="round" stroke-linejoin="round"/>
</svg>
