<svg width="237" height="298" viewBox="0 0 237 298" fill="none" xmlns="http://www.w3.org/2000/svg">
<path d="M44.4266 250.264C44.4266 252.184 44.0586 253.792 43.3226 255.088C42.5866 256.384 41.5146 257.36 40.1066 258.016C38.7146 258.672 37.0346 259 35.0666 259H30.2186V241.864H35.5946C37.3866 241.864 38.9386 242.184 40.2506 242.824C41.5786 243.464 42.6026 244.408 43.3226 245.656C44.0586 246.888 44.4266 248.424 44.4266 250.264ZM40.6586 250.36C40.6586 249.096 40.4746 248.056 40.1066 247.24C39.7386 246.424 39.1866 245.824 38.4506 245.44C37.7306 245.04 36.8426 244.84 35.7866 244.84H33.8426V256H35.4026C37.1786 256 38.4986 255.528 39.3626 254.584C40.2266 253.64 40.6586 252.232 40.6586 250.36ZM53.0962 245.656C54.3122 245.656 55.3522 245.888 56.2162 246.352C57.0962 246.816 57.7762 247.488 58.2562 248.368C58.7362 249.248 58.9762 250.328 58.9762 251.608V253.336H50.5282C50.5602 254.344 50.8562 255.136 51.4162 255.712C51.9922 256.288 52.7842 256.576 53.7922 256.576C54.6402 256.576 55.4082 256.496 56.0962 256.336C56.7842 256.16 57.4962 255.896 58.2322 255.544V258.304C57.5922 258.624 56.9122 258.856 56.1922 259C55.4882 259.16 54.6322 259.24 53.6242 259.24C52.3122 259.24 51.1522 259 50.1442 258.52C49.1362 258.024 48.3442 257.28 47.7682 256.288C47.1922 255.296 46.9042 254.048 46.9042 252.544C46.9042 251.008 47.1602 249.736 47.6722 248.728C48.2002 247.704 48.9282 246.936 49.8562 246.424C50.7842 245.912 51.8642 245.656 53.0962 245.656ZM53.1202 248.2C52.4322 248.2 51.8562 248.424 51.3922 248.872C50.9442 249.32 50.6802 250.016 50.6002 250.96H55.6162C55.6162 250.432 55.5202 249.96 55.3282 249.544C55.1522 249.128 54.8802 248.8 54.5122 248.56C54.1442 248.32 53.6802 248.2 53.1202 248.2ZM69.1239 248.584H66.0279V259H62.4519V248.584H60.4839V246.856L62.4519 245.896V244.936C62.4519 243.816 62.6359 242.952 63.0039 242.344C63.3879 241.72 63.9239 241.28 64.6119 241.024C65.3159 240.768 66.1399 240.64 67.0839 240.64C67.7879 240.64 68.4199 240.696 68.9799 240.808C69.5559 240.92 70.0199 241.048 70.3719 241.192L69.4599 243.808C69.1879 243.728 68.8919 243.656 68.5719 243.592C68.2519 243.512 67.8839 243.472 67.4679 243.472C66.9719 243.472 66.6039 243.624 66.3639 243.928C66.1399 244.232 66.0279 244.616 66.0279 245.08V245.896H69.1239V248.584ZM74.7399 245.896V259H71.1639V245.896H74.7399ZM72.9639 240.76C73.4919 240.76 73.9479 240.888 74.3319 241.144C74.7159 241.384 74.9079 241.84 74.9079 242.512C74.9079 243.168 74.7159 243.624 74.3319 243.88C73.9479 244.136 73.4919 244.264 72.9639 244.264C72.4199 244.264 71.9559 244.136 71.5719 243.88C71.2039 243.624 71.0199 243.168 71.0199 242.512C71.0199 241.84 71.2039 241.384 71.5719 241.144C71.9559 240.888 72.4199 240.76 72.9639 240.76ZM83.8211 259.24C82.5251 259.24 81.4211 259.008 80.5091 258.544C79.5971 258.064 78.9011 257.328 78.4211 256.336C77.9411 255.344 77.7011 254.072 77.7011 252.52C77.7011 250.92 77.9731 249.616 78.5171 248.608C79.0611 247.6 79.8131 246.856 80.7731 246.376C81.7491 245.896 82.8691 245.656 84.1331 245.656C85.0291 245.656 85.8051 245.744 86.4611 245.92C87.1331 246.096 87.7171 246.304 88.2131 246.544L87.1571 249.304C86.5971 249.08 86.0691 248.896 85.5731 248.752C85.0931 248.608 84.6131 248.536 84.1331 248.536C83.5091 248.536 82.9891 248.688 82.5731 248.992C82.1571 249.28 81.8451 249.72 81.6371 250.312C81.4451 250.888 81.3491 251.616 81.3491 252.496C81.3491 253.36 81.4531 254.08 81.6611 254.656C81.8851 255.216 82.2051 255.64 82.6211 255.928C83.0371 256.2 83.5411 256.336 84.1331 256.336C84.8851 256.336 85.5491 256.24 86.1251 256.048C86.7011 255.84 87.2611 255.56 87.8051 255.208V258.256C87.2611 258.608 86.6851 258.856 86.0771 259C85.4851 259.16 84.7331 259.24 83.8211 259.24ZM94.3972 245.896V259H90.8212V245.896H94.3972ZM92.6212 240.76C93.1492 240.76 93.6052 240.888 93.9892 241.144C94.3732 241.384 94.5652 241.84 94.5652 242.512C94.5652 243.168 94.3732 243.624 93.9892 243.88C93.6052 244.136 93.1492 244.264 92.6212 244.264C92.0772 244.264 91.6132 244.136 91.2292 243.88C90.8612 243.624 90.6772 243.168 90.6772 242.512C90.6772 241.84 90.8612 241.384 91.2292 241.144C91.6132 240.888 92.0772 240.76 92.6212 240.76ZM103.534 245.656C104.75 245.656 105.79 245.888 106.654 246.352C107.534 246.816 108.214 247.488 108.694 248.368C109.174 249.248 109.414 250.328 109.414 251.608V253.336H100.966C100.998 254.344 101.294 255.136 101.854 255.712C102.43 256.288 103.222 256.576 104.23 256.576C105.078 256.576 105.846 256.496 106.534 256.336C107.222 256.16 107.934 255.896 108.67 255.544V258.304C108.03 258.624 107.35 258.856 106.63 259C105.926 259.16 105.07 259.24 104.062 259.24C102.75 259.24 101.59 259 100.582 258.52C99.5737 258.024 98.7817 257.28 98.2057 256.288C97.6297 255.296 97.3417 254.048 97.3417 252.544C97.3417 251.008 97.5977 249.736 98.1097 248.728C98.6377 247.704 99.3657 246.936 100.294 246.424C101.222 245.912 102.302 245.656 103.534 245.656ZM103.558 248.2C102.87 248.2 102.294 248.424 101.83 248.872C101.382 249.32 101.118 250.016 101.038 250.96H106.054C106.054 250.432 105.958 249.96 105.766 249.544C105.59 249.128 105.318 248.8 104.95 248.56C104.582 248.32 104.118 248.2 103.558 248.2ZM105.454 240.616C105.678 240.968 105.966 241.368 106.318 241.816C106.686 242.248 107.062 242.672 107.446 243.088C107.83 243.504 108.166 243.856 108.454 244.144V244.456H106.078C105.662 244.2 105.206 243.904 104.71 243.568C104.214 243.216 103.758 242.824 103.342 242.392C102.926 242.824 102.478 243.208 101.998 243.544C101.518 243.88 101.07 244.184 100.654 244.456H98.2777V244.144C98.5817 243.84 98.9177 243.488 99.2857 243.088C99.6697 242.672 100.038 242.248 100.39 241.816C100.758 241.368 101.054 240.968 101.278 240.616H105.454ZM119.753 245.656C121.161 245.656 122.289 246.04 123.137 246.808C123.985 247.56 124.409 248.776 124.409 250.456V259H120.833V251.344C120.833 250.4 120.665 249.696 120.329 249.232C119.993 248.752 119.457 248.512 118.721 248.512C117.633 248.512 116.889 248.888 116.489 249.64C116.089 250.376 115.889 251.44 115.889 252.832V259H112.313V245.896H115.049L115.529 247.576H115.721C116.009 247.128 116.361 246.768 116.777 246.496C117.193 246.208 117.657 246 118.169 245.872C118.681 245.728 119.209 245.656 119.753 245.656ZM133.415 259.24C132.119 259.24 131.015 259.008 130.103 258.544C129.191 258.064 128.495 257.328 128.015 256.336C127.535 255.344 127.295 254.072 127.295 252.52C127.295 250.92 127.567 249.616 128.111 248.608C128.655 247.6 129.407 246.856 130.367 246.376C131.343 245.896 132.463 245.656 133.727 245.656C134.623 245.656 135.399 245.744 136.055 245.92C136.727 246.096 137.311 246.304 137.807 246.544L136.751 249.304C136.191 249.08 135.663 248.896 135.167 248.752C134.687 248.608 134.207 248.536 133.727 248.536C133.103 248.536 132.583 248.688 132.167 248.992C131.751 249.28 131.439 249.72 131.231 250.312C131.039 250.888 130.943 251.616 130.943 252.496C130.943 253.36 131.047 254.08 131.255 254.656C131.479 255.216 131.799 255.64 132.215 255.928C132.631 256.2 133.135 256.336 133.727 256.336C134.479 256.336 135.143 256.24 135.719 256.048C136.295 255.84 136.855 255.56 137.399 255.208V258.256C136.855 258.608 136.279 258.856 135.671 259C135.079 259.16 134.327 259.24 133.415 259.24ZM143.991 245.896V259H140.415V245.896H143.991ZM142.215 240.76C142.743 240.76 143.199 240.888 143.583 241.144C143.967 241.384 144.159 241.84 144.159 242.512C144.159 243.168 143.967 243.624 143.583 243.88C143.199 244.136 142.743 244.264 142.215 244.264C141.671 244.264 141.207 244.136 140.823 243.88C140.455 243.624 140.271 243.168 140.271 242.512C140.271 241.84 140.455 241.384 140.823 241.144C141.207 240.888 141.671 240.76 142.215 240.76ZM153.103 245.632C154.863 245.632 156.207 246.016 157.135 246.784C158.079 247.536 158.551 248.696 158.551 250.264V259H156.055L155.359 257.224H155.263C154.895 257.688 154.511 258.072 154.111 258.376C153.727 258.68 153.279 258.896 152.767 259.024C152.271 259.168 151.655 259.24 150.919 259.24C150.151 259.24 149.455 259.096 148.831 258.808C148.223 258.504 147.743 258.048 147.391 257.44C147.039 256.816 146.863 256.032 146.863 255.088C146.863 253.696 147.351 252.672 148.327 252.016C149.303 251.344 150.767 250.976 152.719 250.912L154.999 250.84V250.264C154.999 249.576 154.815 249.072 154.447 248.752C154.095 248.432 153.599 248.272 152.959 248.272C152.319 248.272 151.695 248.368 151.087 248.56C150.479 248.736 149.871 248.96 149.263 249.232L148.087 246.808C148.791 246.44 149.567 246.152 150.415 245.944C151.279 245.736 152.175 245.632 153.103 245.632ZM153.607 252.976C152.455 253.008 151.655 253.216 151.207 253.6C150.759 253.984 150.535 254.488 150.535 255.112C150.535 255.656 150.695 256.048 151.015 256.288C151.335 256.512 151.751 256.624 152.263 256.624C153.031 256.624 153.679 256.4 154.207 255.952C154.735 255.488 154.999 254.84 154.999 254.008V252.928L153.607 252.976ZM172.598 259.24C171.142 259.24 169.95 258.672 169.022 257.536C168.11 256.384 167.654 254.696 167.654 252.472C167.654 250.232 168.118 248.536 169.046 247.384C169.974 246.232 171.19 245.656 172.694 245.656C173.318 245.656 173.87 245.744 174.35 245.92C174.83 246.08 175.238 246.304 175.574 246.592C175.926 246.88 176.222 247.208 176.462 247.576H176.582C176.534 247.32 176.478 246.952 176.414 246.472C176.35 245.976 176.318 245.472 176.318 244.96V240.76H179.894V259H177.158L176.462 257.296H176.318C176.094 257.648 175.806 257.976 175.454 258.28C175.118 258.568 174.718 258.8 174.254 258.976C173.79 259.152 173.238 259.24 172.598 259.24ZM173.846 256.384C174.838 256.384 175.534 256.096 175.934 255.52C176.334 254.928 176.542 254.048 176.558 252.88V252.496C176.558 251.216 176.358 250.24 175.958 249.568C175.574 248.896 174.854 248.56 173.798 248.56C173.014 248.56 172.398 248.904 171.95 249.592C171.502 250.264 171.278 251.24 171.278 252.52C171.278 253.8 171.502 254.768 171.95 255.424C172.398 256.064 173.03 256.384 173.846 256.384ZM189.034 245.656C190.25 245.656 191.29 245.888 192.154 246.352C193.034 246.816 193.714 247.488 194.194 248.368C194.674 249.248 194.914 250.328 194.914 251.608V253.336H186.466C186.498 254.344 186.794 255.136 187.354 255.712C187.93 256.288 188.722 256.576 189.73 256.576C190.578 256.576 191.346 256.496 192.034 256.336C192.722 256.16 193.434 255.896 194.17 255.544V258.304C193.53 258.624 192.85 258.856 192.13 259C191.426 259.16 190.57 259.24 189.562 259.24C188.25 259.24 187.09 259 186.082 258.52C185.074 258.024 184.282 257.28 183.706 256.288C183.13 255.296 182.842 254.048 182.842 252.544C182.842 251.008 183.098 249.736 183.61 248.728C184.138 247.704 184.866 246.936 185.794 246.424C186.722 245.912 187.802 245.656 189.034 245.656ZM189.058 248.2C188.37 248.2 187.794 248.424 187.33 248.872C186.882 249.32 186.618 250.016 186.538 250.96H191.554C191.554 250.432 191.458 249.96 191.266 249.544C191.09 249.128 190.818 248.8 190.45 248.56C190.082 248.32 189.618 248.2 189.058 248.2ZM86.4633 275.648C85.7753 275.648 85.1593 275.784 84.6153 276.056C84.0873 276.328 83.6393 276.72 83.2713 277.232C82.9033 277.728 82.6233 278.336 82.4313 279.056C82.2553 279.776 82.1673 280.584 82.1673 281.48C82.1673 282.696 82.3113 283.736 82.5993 284.6C82.9033 285.448 83.3753 286.096 84.0153 286.544C84.6553 286.992 85.4713 287.216 86.4633 287.216C87.1673 287.216 87.8633 287.136 88.5513 286.976C89.2553 286.816 90.0153 286.592 90.8313 286.304V289.352C90.0793 289.656 89.3353 289.88 88.5993 290.024C87.8633 290.168 87.0393 290.24 86.1273 290.24C84.3673 290.24 82.9113 289.88 81.7593 289.16C80.6233 288.424 79.7833 287.4 79.2393 286.088C78.6953 284.76 78.4233 283.216 78.4233 281.456C78.4233 280.16 78.5993 278.976 78.9513 277.904C79.3033 276.816 79.8153 275.88 80.4873 275.096C81.1753 274.312 82.0153 273.704 83.0073 273.272C84.0153 272.84 85.1673 272.624 86.4633 272.624C87.3113 272.624 88.1593 272.736 89.0073 272.96C89.8713 273.168 90.6953 273.456 91.4793 273.824L90.3033 276.776C89.6633 276.472 89.0153 276.208 88.3593 275.984C87.7193 275.76 87.0873 275.648 86.4633 275.648ZM106.089 283.424C106.089 284.512 105.937 285.48 105.633 286.328C105.345 287.176 104.921 287.896 104.361 288.488C103.817 289.064 103.153 289.504 102.369 289.808C101.585 290.096 100.697 290.24 99.7045 290.24C98.7925 290.24 97.9445 290.096 97.1605 289.808C96.3925 289.504 95.7285 289.064 95.1685 288.488C94.6085 287.896 94.1685 287.176 93.8485 286.328C93.5445 285.48 93.3925 284.512 93.3925 283.424C93.3925 281.968 93.6485 280.744 94.1605 279.752C94.6725 278.744 95.4085 277.976 96.3685 277.448C97.3285 276.92 98.4645 276.656 99.7765 276.656C101.009 276.656 102.097 276.92 103.041 277.448C103.985 277.976 104.729 278.744 105.273 279.752C105.817 280.744 106.089 281.968 106.089 283.424ZM97.0405 283.424C97.0405 284.288 97.1285 285.016 97.3045 285.608C97.4965 286.184 97.7925 286.624 98.1925 286.928C98.5925 287.216 99.1125 287.36 99.7525 287.36C100.393 287.36 100.905 287.216 101.289 286.928C101.689 286.624 101.977 286.184 102.153 285.608C102.345 285.016 102.441 284.288 102.441 283.424C102.441 282.56 102.345 281.84 102.153 281.264C101.977 280.688 101.689 280.256 101.289 279.968C100.889 279.68 100.369 279.536 99.7285 279.536C98.7845 279.536 98.0965 279.864 97.6645 280.52C97.2485 281.16 97.0405 282.128 97.0405 283.424ZM112.62 276.008C112.62 276.504 112.604 276.992 112.572 277.472C112.54 277.952 112.508 278.328 112.476 278.6H112.62C112.972 278.056 113.444 277.6 114.036 277.232C114.628 276.848 115.396 276.656 116.34 276.656C117.812 276.656 119.004 277.232 119.916 278.384C120.828 279.52 121.284 281.2 121.284 283.424C121.284 284.912 121.068 286.168 120.636 287.192C120.22 288.2 119.636 288.96 118.884 289.472C118.132 289.984 117.252 290.24 116.244 290.24C115.284 290.24 114.524 290.072 113.964 289.736C113.42 289.384 112.972 288.992 112.62 288.56H112.38L111.78 290H109.044V271.76H112.62V276.008ZM115.188 279.512C114.564 279.512 114.068 279.64 113.7 279.896C113.332 280.152 113.06 280.544 112.884 281.072C112.724 281.584 112.636 282.232 112.62 283.016V283.4C112.62 284.664 112.804 285.64 113.172 286.328C113.556 287 114.244 287.336 115.236 287.336C115.972 287.336 116.556 287 116.988 286.328C117.42 285.64 117.636 284.656 117.636 283.376C117.636 282.096 117.412 281.136 116.964 280.496C116.532 279.84 115.94 279.512 115.188 279.512ZM131.551 276.656C131.727 276.656 131.935 276.664 132.175 276.68C132.415 276.696 132.607 276.72 132.751 276.752L132.487 280.112C132.375 280.08 132.207 280.056 131.983 280.04C131.775 280.008 131.591 279.992 131.431 279.992C130.967 279.992 130.519 280.056 130.087 280.184C129.655 280.296 129.263 280.48 128.911 280.736C128.575 280.992 128.303 281.336 128.095 281.768C127.903 282.184 127.807 282.704 127.807 283.328V290H124.231V276.896H126.943L127.471 279.104H127.639C127.895 278.656 128.215 278.248 128.599 277.88C128.983 277.512 129.423 277.216 129.919 276.992C130.431 276.768 130.975 276.656 131.551 276.656ZM140.061 276.656C141.277 276.656 142.317 276.888 143.181 277.352C144.061 277.816 144.741 278.488 145.221 279.368C145.701 280.248 145.941 281.328 145.941 282.608V284.336H137.493C137.525 285.344 137.821 286.136 138.381 286.712C138.957 287.288 139.749 287.576 140.757 287.576C141.605 287.576 142.373 287.496 143.061 287.336C143.749 287.16 144.461 286.896 145.197 286.544V289.304C144.557 289.624 143.877 289.856 143.157 290C142.453 290.16 141.597 290.24 140.589 290.24C139.277 290.24 138.117 290 137.109 289.52C136.101 289.024 135.309 288.28 134.733 287.288C134.157 286.296 133.869 285.048 133.869 283.544C133.869 282.008 134.125 280.736 134.637 279.728C135.165 278.704 135.893 277.936 136.821 277.424C137.749 276.912 138.829 276.656 140.061 276.656ZM140.085 279.2C139.397 279.2 138.821 279.424 138.357 279.872C137.909 280.32 137.645 281.016 137.565 281.96H142.581C142.581 281.432 142.485 280.96 142.293 280.544C142.117 280.128 141.845 279.8 141.477 279.56C141.109 279.32 140.645 279.2 140.085 279.2Z" fill="black"/>
<circle cx="112.5" cy="108.5" r="93.5" stroke="#CCCCCC" stroke-width="30"/>
<path d="M112 202C60.6375 202 19 160.139 19 108.5C19 56.8614 60.6375 15 112 15" stroke="#EE2727" stroke-width="30"/>
<path d="M152.5 24.0001C198.394 44.8589 218.816 100.377 197.569 147.124C176.323 193.872 119.894 214.859 74 194" stroke="#EE2727" stroke-width="30"/>
<path d="M66.9688 109.531C65.3646 109.531 63.7917 109.26 62.25 108.719C60.7083 108.156 59.3333 107.312 58.125 106.188C56.9375 105.062 55.9792 103.677 55.25 102.031C54.5208 100.385 54.1562 98.4479 54.1562 96.2188C54.1562 94.1562 54.5417 92.2188 55.3125 90.4062C56.0833 88.5938 57.1562 87.0104 58.5312 85.6562C59.9271 84.2812 61.5938 83.1979 63.5312 82.4062C65.4688 81.6146 67.6146 81.2188 69.9688 81.2188C72.3438 81.2188 74.4688 81.5938 76.3438 82.3438C78.2396 83.0938 79.8542 84.1458 81.1875 85.5C82.5208 86.8333 83.5417 88.4375 84.25 90.3125C84.9583 92.1875 85.3125 94.2396 85.3125 96.4688C85.3125 97.9062 85.1875 99.2708 84.9375 100.562C84.7083 101.833 84.3646 103.062 83.9062 104.25C83.4479 105.438 82.8958 106.594 82.25 107.719C81.6042 108.823 80.8854 109.938 80.0938 111.062L69.5312 126.188C69.1562 126.688 68.6146 127.115 67.9062 127.469C67.1979 127.823 66.375 128 65.4375 128H58.1875L72.5625 110.062C72.9167 109.604 73.25 109.167 73.5625 108.75C73.8958 108.312 74.2083 107.885 74.5 107.469C73.4375 108.135 72.2604 108.646 70.9688 109C69.6979 109.354 68.3646 109.531 66.9688 109.531ZM77.75 95.6875C77.75 94.4167 77.5521 93.2917 77.1562 92.3125C76.7812 91.3125 76.2396 90.4792 75.5312 89.8125C74.8229 89.125 73.9792 88.6042 73 88.25C72.0417 87.875 70.9896 87.6875 69.8438 87.6875C68.6354 87.6875 67.5521 87.8854 66.5938 88.2812C65.6354 88.6771 64.8229 89.2292 64.1562 89.9375C63.4896 90.625 62.9688 91.4583 62.5938 92.4375C62.2396 93.3958 62.0625 94.4583 62.0625 95.625C62.0625 98.2083 62.7292 100.177 64.0625 101.531C65.3958 102.885 67.2917 103.562 69.75 103.562C71.0208 103.562 72.1458 103.365 73.125 102.969C74.125 102.552 74.9688 101.99 75.6562 101.281C76.3438 100.573 76.8646 99.7396 77.2188 98.7812C77.5729 97.8229 77.75 96.7917 77.75 95.6875ZM106.375 81.2188C108.521 81.2188 110.479 81.5312 112.25 82.1562C114.021 82.7812 115.531 83.6771 116.781 84.8438C118.052 85.9896 119.031 87.375 119.719 89C120.427 90.625 120.781 92.4271 120.781 94.4062C120.781 96.1146 120.531 97.6979 120.031 99.1562C119.531 100.594 118.854 101.979 118 103.312C117.167 104.625 116.188 105.906 115.062 107.156C113.938 108.385 112.75 109.635 111.5 110.906L101.062 121.562C102.104 121.271 103.115 121.042 104.094 120.875C105.073 120.708 106.01 120.625 106.906 120.625H118.781C119.635 120.625 120.312 120.875 120.812 121.375C121.312 121.854 121.562 122.479 121.562 123.25V128H89.8125V125.375C89.8125 124.833 89.9271 124.281 90.1562 123.719C90.3854 123.135 90.7396 122.604 91.2188 122.125L105.281 108.031C106.448 106.844 107.49 105.708 108.406 104.625C109.344 103.521 110.125 102.438 110.75 101.375C111.375 100.312 111.854 99.2292 112.188 98.125C112.521 97.0208 112.688 95.8646 112.688 94.6562C112.688 93.5521 112.521 92.5833 112.188 91.75C111.875 90.8958 111.417 90.1875 110.812 89.625C110.229 89.0417 109.521 88.6042 108.688 88.3125C107.875 88.0208 106.958 87.875 105.938 87.875C104.042 87.875 102.479 88.3542 101.25 89.3125C100.021 90.2708 99.1667 91.5625 98.6875 93.1875C98.4375 94 98.0729 94.5833 97.5938 94.9375C97.1354 95.2917 96.5521 95.4688 95.8438 95.4688C95.5104 95.4688 95.1562 95.4375 94.7812 95.375L90.625 94.625C90.9375 92.3958 91.5521 90.4479 92.4688 88.7812C93.3854 87.1146 94.5312 85.7188 95.9062 84.5938C97.2812 83.4688 98.8542 82.625 100.625 82.0625C102.417 81.5 104.333 81.2188 106.375 81.2188ZM147.562 92.9375C147.562 94.6875 147.271 96.2708 146.688 97.6875C146.104 99.0833 145.323 100.281 144.344 101.281C143.365 102.26 142.219 103.021 140.906 103.562C139.615 104.083 138.26 104.344 136.844 104.344C135.302 104.344 133.875 104.083 132.562 103.562C131.271 103.021 130.146 102.26 129.188 101.281C128.25 100.281 127.51 99.0833 126.969 97.6875C126.448 96.2708 126.188 94.6875 126.188 92.9375C126.188 91.1458 126.448 89.5208 126.969 88.0625C127.51 86.6042 128.25 85.375 129.188 84.375C130.146 83.375 131.271 82.6042 132.562 82.0625C133.875 81.5208 135.302 81.25 136.844 81.25C138.385 81.25 139.812 81.5208 141.125 82.0625C142.438 82.6042 143.573 83.375 144.531 84.375C145.49 85.375 146.229 86.6042 146.75 88.0625C147.292 89.5208 147.562 91.1458 147.562 92.9375ZM141.438 92.9375C141.438 91.6875 141.323 90.6458 141.094 89.8125C140.865 88.9792 140.542 88.3125 140.125 87.8125C139.708 87.2917 139.219 86.9271 138.656 86.7188C138.094 86.4896 137.49 86.375 136.844 86.375C136.198 86.375 135.594 86.4896 135.031 86.7188C134.49 86.9271 134.01 87.2917 133.594 87.8125C133.198 88.3125 132.885 88.9792 132.656 89.8125C132.448 90.6458 132.344 91.6875 132.344 92.9375C132.344 94.125 132.448 95.125 132.656 95.9375C132.885 96.7292 133.198 97.375 133.594 97.875C134.01 98.3542 134.49 98.6979 135.031 98.9062C135.594 99.1146 136.198 99.2188 136.844 99.2188C137.49 99.2188 138.094 99.1146 138.656 98.9062C139.219 98.6979 139.708 98.3542 140.125 97.875C140.542 97.375 140.865 96.7292 141.094 95.9375C141.323 95.125 141.438 94.125 141.438 92.9375ZM162.969 82.9688C163.219 82.6562 163.531 82.375 163.906 82.125C164.302 81.8542 164.833 81.7188 165.5 81.7188H171.25L136.875 126.812C136.625 127.146 136.302 127.427 135.906 127.656C135.51 127.885 135.031 128 134.469 128H128.594L162.969 82.9688ZM173.688 117.125C173.688 118.875 173.385 120.458 172.781 121.875C172.198 123.271 171.417 124.469 170.438 125.469C169.458 126.448 168.312 127.208 167 127.75C165.708 128.292 164.365 128.562 162.969 128.562C161.427 128.562 160 128.292 158.688 127.75C157.396 127.208 156.271 126.448 155.312 125.469C154.375 124.469 153.635 123.271 153.094 121.875C152.573 120.458 152.312 118.875 152.312 117.125C152.312 115.333 152.573 113.719 153.094 112.281C153.635 110.823 154.375 109.594 155.312 108.594C156.271 107.573 157.396 106.792 158.688 106.25C160 105.708 161.427 105.438 162.969 105.438C164.49 105.438 165.906 105.708 167.219 106.25C168.531 106.792 169.667 107.573 170.625 108.594C171.583 109.594 172.333 110.823 172.875 112.281C173.417 113.719 173.688 115.333 173.688 117.125ZM167.594 117.125C167.594 115.875 167.469 114.844 167.219 114.031C166.99 113.198 166.667 112.521 166.25 112C165.833 111.479 165.333 111.115 164.75 110.906C164.188 110.677 163.594 110.562 162.969 110.562C162.323 110.562 161.719 110.677 161.156 110.906C160.615 111.115 160.146 111.479 159.75 112C159.354 112.521 159.031 113.198 158.781 114.031C158.552 114.844 158.438 115.875 158.438 117.125C158.438 118.312 158.552 119.312 158.781 120.125C159.031 120.938 159.354 121.594 159.75 122.094C160.146 122.573 160.615 122.927 161.156 123.156C161.719 123.365 162.323 123.469 162.969 123.469C163.594 123.469 164.188 123.365 164.75 123.156C165.333 122.927 165.833 122.573 166.25 122.094C166.667 121.594 166.99 120.938 167.219 120.125C167.469 119.312 167.594 118.312 167.594 117.125Z" fill="black"/>
</svg>
