<svg width="17" height="14" viewBox="0 0 17 14" fill="none" xmlns="http://www.w3.org/2000/svg">
<path d="M13.9814 8.6817C13.3022 9.10674 12.5221 9.33028 11.7272 9.32764C11.0613 9.32222 10.4029 9.18201 9.78952 8.915C9.3168 9.602 9.0638 10.4236 9.06573 11.2655V13.4155C9.0659 13.4954 9.0501 13.5746 9.0193 13.648C8.98851 13.7214 8.94339 13.7875 8.88674 13.8422C8.83009 13.8969 8.76311 13.939 8.68998 13.9659C8.61685 13.9929 8.53912 14.004 8.46162 13.9987C8.31599 13.9857 8.18054 13.9164 8.08242 13.8049C7.9843 13.6933 7.93078 13.5477 7.93258 13.3972V12.4903L5.19746 9.67467C4.79087 9.83083 4.36087 9.9125 3.92692 9.91599C3.32951 9.91759 2.74328 9.74931 2.23287 9.42971C0.689672 8.46444 -0.141063 6.243 0.0197014 3.48497C0.0277959 3.34229 0.0865051 3.20763 0.184683 3.10656C0.28286 3.00549 0.413671 2.94505 0.552279 2.93672C3.23145 2.77414 5.38938 3.62641 6.32423 5.21503C6.69152 5.8377 6.85187 6.56656 6.78103 7.29138C6.77662 7.34754 6.75651 7.40119 6.72312 7.44583C6.68973 7.49047 6.6445 7.5242 6.59288 7.54294C6.54127 7.56168 6.48548 7.56462 6.43228 7.55142C6.37907 7.53822 6.33072 7.50943 6.29307 7.46854L4.93329 6.00314C4.82618 5.89838 4.68354 5.84083 4.5358 5.84278C4.38806 5.84473 4.24691 5.90601 4.14243 6.01356C4.03795 6.12111 3.97842 6.26642 3.97653 6.41851C3.97464 6.5706 4.03054 6.71743 4.1323 6.8277L7.94816 10.8557C7.95241 10.7989 7.95737 10.742 7.96304 10.6859C8.08693 9.6045 8.55046 8.59435 9.28315 7.80902L12.866 3.91147C12.9723 3.80213 13.0321 3.65379 13.0321 3.49908C13.0322 3.34438 12.9726 3.19598 12.8664 3.08654C12.7601 2.9771 12.616 2.91558 12.4658 2.91551C12.3155 2.91544 12.1713 2.97683 12.065 3.08618L8.59476 6.86416C8.56003 6.90203 8.51607 6.92964 8.46746 6.94411C8.41885 6.95858 8.36737 6.95938 8.31836 6.94643C8.26934 6.93348 8.2246 6.90726 8.18876 6.87048C8.15293 6.8337 8.12732 6.78771 8.11459 6.7373C7.7789 5.46291 7.92692 4.19435 8.56785 3.10513C9.83272 0.95587 12.7761 -0.194583 16.4418 0.0270504C16.5804 0.0353831 16.7112 0.0958203 16.8094 0.196887C16.9076 0.297954 16.9663 0.432615 16.9744 0.575302C17.1868 4.34964 16.0693 7.3796 13.9814 8.6817Z" fill="#65B741"/>
</svg>
