<svg width="60" height="60" viewBox="0 0 60 60" fill="none" xmlns="http://www.w3.org/2000/svg">
<rect width="60" height="60" rx="5" fill="#FFB534"/>
<path d="M43.1287 10.708C46.0309 15.3811 47.6561 20.6136 47.6561 26.1383C47.6561 32.0439 45.3829 39.4724 40.7392 44.2412C40.3702 44.6264 39.9792 44.9941 39.5677 45.3425C37.9526 46.7277 36.0923 47.8038 33.983 48.4316L33.9813 48.4315C32.2677 48.9877 30.4194 49.2911 28.4922 49.2911C24.0254 49.2911 19.9824 47.6622 17.0588 45.0299C20.439 35.0139 27.5302 29.6238 30.7208 28.162L30.7209 28.1621C33.7905 26.8186 35.2183 25.9432 36.0162 25.2734C36.4158 24.9378 36.6566 24.6544 36.8656 24.3918C37.0746 24.1291 37.2489 23.8915 37.5188 23.6398L37.4497 23.5575C35.5652 24.9679 32.662 25.786 31.444 26.0185C26.9694 26.666 23.1417 29.5323 20.1768 32.8447C17.4493 35.8918 15.4477 39.3217 14.3396 41.7649C14.3032 41.7057 14.2672 41.6462 14.2317 41.5865L14.2298 41.5919L14.2288 41.5946C13.0251 39.5646 12.3428 37.2474 12.3428 34.787V34.774C12.3428 26.7636 19.5731 20.27 28.4922 20.27C28.6075 20.27 28.7226 20.2713 28.8373 20.2734C35.8578 19.6658 41.5508 15.7467 43.1287 10.708Z" fill="#58B741"/>
<path d="M47.599 24.349C47.6369 24.9418 47.6561 25.5383 47.6561 26.1383C47.6561 32.0439 45.3829 39.4724 40.7392 44.2412C40.3702 44.6264 39.9792 44.9941 39.5677 45.3425C37.9526 46.7277 36.0923 47.8038 33.983 48.4316L33.9813 48.4315C32.2677 48.9877 30.4194 49.2911 28.4922 49.2911C24.0254 49.2911 19.9824 47.6622 17.0588 45.0299C17.0599 45.0267 17.061 45.0234 17.0621 45.0202C18.9329 45.4843 20.9036 45.7327 22.939 45.7327C25.5654 45.7327 28.0843 45.3195 30.4196 44.5622L30.4219 44.5623C33.2964 43.7075 35.8317 42.2422 38.0327 40.356C38.5935 39.8815 39.1265 39.381 39.6294 38.8564C43.4595 34.9264 46.1062 29.6696 47.599 24.349Z" fill="#49A010"/>
<path d="M37.7002 12.778C37.5726 13.6613 36.7369 14.272 35.8337 14.1421C34.9305 14.0121 34.3018 13.1907 34.4294 12.3074C34.5571 11.4241 35.3927 10.8134 36.2959 10.9433C37.1992 11.0733 37.8279 11.8947 37.7002 12.778Z" fill="#3A7F0D"/>
<path d="M32.4295 16.4419C32.3409 17.0549 31.761 17.4787 31.1343 17.3885C30.5075 17.2983 30.0713 16.7283 30.1598 16.1153C30.2484 15.5024 30.8283 15.0786 31.455 15.1688C32.0818 15.259 32.5181 15.829 32.4295 16.4419Z" fill="#58B741"/>
</svg>
