<svg width="40" height="40" viewBox="0 0 40 40" fill="none" xmlns="http://www.w3.org/2000/svg">
<path d="M35.0005 27.9414C35.575 27.9415 36.1265 28.1699 36.5327 28.5762C36.9388 28.9825 37.1665 29.5339 37.1665 30.1084C37.1664 30.6827 36.9387 31.2335 36.5327 31.6396C36.1265 32.0459 35.575 32.2743 35.0005 32.2744H5.00049C4.42585 32.2744 3.87459 32.046 3.46826 31.6396C3.06211 31.2334 2.8336 30.6828 2.8335 30.1084C2.8335 29.5338 3.06195 28.9825 3.46826 28.5762C3.87459 28.1698 4.42585 27.9414 5.00049 27.9414H35.0005ZM35.0005 17.8867C35.575 17.8868 36.1265 18.1143 36.5327 18.5205C36.939 18.9268 37.1664 19.4782 37.1665 20.0527C37.1665 20.6272 36.9389 21.1787 36.5327 21.585C36.1265 21.9912 35.575 22.2196 35.0005 22.2197H5.00049C4.42587 22.2197 3.87459 21.9913 3.46826 21.585C3.06193 21.1786 2.8335 20.6274 2.8335 20.0527C2.83357 19.4782 3.062 18.9268 3.46826 18.5205C3.87456 18.1144 4.42599 17.8867 5.00049 17.8867H35.0005ZM35.0005 7.83301L35.2144 7.84375C35.7103 7.89301 36.1772 8.11225 36.5327 8.46777C36.9388 8.87407 37.1665 9.42552 37.1665 10C37.1664 10.5745 36.939 11.126 36.5327 11.5322C36.1265 11.9385 35.575 12.1659 35.0005 12.166H5.00049C4.42601 12.166 3.87456 11.9384 3.46826 11.5322C3.06201 11.126 2.83358 10.5745 2.8335 10C2.8335 9.42536 3.06193 8.8741 3.46826 8.46777C3.87459 8.06144 4.42585 7.83301 5.00049 7.83301H35.0005Z" fill="white" stroke="white"/>
</svg>
