<svg width="57" height="40" viewBox="0 0 57 40" fill="none" xmlns="http://www.w3.org/2000/svg">
<path d="M12.3333 10C12.3333 9.55801 12.5089 9.13409 12.8215 8.82153C13.134 8.50897 13.558 8.33337 14 8.33337H44C44.442 8.33337 44.8659 8.50897 45.1785 8.82153C45.4911 9.13409 45.6666 9.55801 45.6666 10C45.6666 10.4421 45.4911 10.866 45.1785 11.1786C44.8659 11.4911 44.442 11.6667 44 11.6667H14C13.558 11.6667 13.134 11.4911 12.8215 11.1786C12.5089 10.866 12.3333 10.4421 12.3333 10ZM12.3333 20.0534C12.3333 19.6113 12.5089 19.1874 12.8215 18.8749C13.134 18.5623 13.558 18.3867 14 18.3867H44C44.442 18.3867 44.8659 18.5623 45.1785 18.8749C45.4911 19.1874 45.6666 19.6113 45.6666 20.0534C45.6666 20.4954 45.4911 20.9193 45.1785 21.2319C44.8659 21.5444 44.442 21.72 44 21.72H14C13.558 21.72 13.134 21.5444 12.8215 21.2319C12.5089 20.9193 12.3333 20.4954 12.3333 20.0534ZM14 28.4417C13.558 28.4417 13.134 28.6173 12.8215 28.9299C12.5089 29.2424 12.3333 29.6663 12.3333 30.1084C12.3333 30.5504 12.5089 30.9743 12.8215 31.2869C13.134 31.5994 13.558 31.775 14 31.775H44C44.442 31.775 44.8659 31.5994 45.1785 31.2869C45.4911 30.9743 45.6666 30.5504 45.6666 30.1084C45.6666 29.6663 45.4911 29.2424 45.1785 28.9299C44.8659 28.6173 44.442 28.4417 44 28.4417H14Z" fill="#351102"/>
</svg>
