<svg width="12" height="14" viewBox="0 0 12 14" fill="none" xmlns="http://www.w3.org/2000/svg">
<path d="M3.84 3.29034e-09L1.44 1.23388e-09C1.43999 0.608846 1.66875 1.19521 2.08044 1.64158C2.49213 2.08796 3.05634 2.36137 3.66 2.40703C1.50912 3.32428 -4.68507e-09 5.46772 -6.82533e-09 7.96552C-9.68121e-09 11.2985 2.68608 14 6 14C9.31392 14 12 11.2985 12 7.96552C12 4.69724 9.4176 2.03628 6.19248 1.93393C6.08222 1.38819 5.78781 0.897548 5.35909 0.545108C4.93037 0.192668 4.39371 9.2988e-05 3.84 3.29034e-09ZM0.96 7.96552C0.96 5.166 3.21648 2.89655 6 2.89655C8.78352 2.89655 11.04 5.166 11.04 7.96552C11.04 10.765 8.78352 13.0345 6 13.0345C3.21648 13.0345 0.96 10.765 0.96 7.96552Z" fill="#EB9900"/>
</svg>
