<svg width="11" height="14" viewBox="0 0 11 14" fill="none" xmlns="http://www.w3.org/2000/svg">
<path d="M4.8125 0V0.666667H2.0625C1.51549 0.666667 0.990886 0.87738 0.604092 1.25245C0.217299 1.62753 0 2.13623 0 2.66667V4.66667C0 5.55072 0.362164 6.39857 1.00682 7.02369C1.65148 7.64881 2.52582 8 3.4375 8H7.5625C8.47418 8 9.34852 7.64881 9.99318 7.02369C10.6378 6.39857 11 5.55072 11 4.66667V2.66667C11 2.13623 10.7827 1.62753 10.3959 1.25245C10.0091 0.87738 9.48451 0.666667 8.9375 0.666667H6.1875V0H4.8125ZM1.375 2.66667C1.375 2.48986 1.44743 2.32029 1.57636 2.19526C1.7053 2.07024 1.88016 2 2.0625 2H8.9375C9.11984 2 9.29471 2.07024 9.42364 2.19526C9.55257 2.32029 9.625 2.48986 9.625 2.66667V4.66667C9.625 5.1971 9.4077 5.70581 9.02091 6.08088C8.63411 6.45595 8.10951 6.66667 7.5625 6.66667H3.4375C2.89049 6.66667 2.36589 6.45595 1.97909 6.08088C1.5923 5.70581 1.375 5.1971 1.375 4.66667V2.66667ZM3.78125 5.33333C4.05475 5.33333 4.31706 5.22798 4.51045 5.04044C4.70385 4.8529 4.8125 4.59855 4.8125 4.33333C4.8125 4.06812 4.70385 3.81376 4.51045 3.62623C4.31706 3.43869 4.05475 3.33333 3.78125 3.33333C3.50775 3.33333 3.24544 3.43869 3.05205 3.62623C2.85865 3.81376 2.75 4.06812 2.75 4.33333C2.75 4.59855 2.85865 4.8529 3.05205 5.04044C3.24544 5.22798 3.50775 5.33333 3.78125 5.33333ZM7.21875 5.33333C7.49225 5.33333 7.75456 5.22798 7.94795 5.04044C8.14135 4.8529 8.25 4.59855 8.25 4.33333C8.25 4.06812 8.14135 3.81376 7.94795 3.62623C7.75456 3.43869 7.49225 3.33333 7.21875 3.33333C6.94525 3.33333 6.68294 3.43869 6.48955 3.62623C6.29615 3.81376 6.1875 4.06812 6.1875 4.33333C6.1875 4.59855 6.29615 4.8529 6.48955 5.04044C6.68294 5.22798 6.94525 5.33333 7.21875 5.33333ZM1.375 14C1.375 12.9391 1.8096 11.9217 2.58318 11.1716C3.35677 10.4214 4.40598 10 5.5 10C6.59402 10 7.64323 10.4214 8.41682 11.1716C9.1904 11.9217 9.625 12.9391 9.625 14H11C11 12.5855 10.4205 11.229 9.38909 10.2288C8.35764 9.22857 6.95869 8.66667 5.5 8.66667C4.04131 8.66667 2.64236 9.22857 1.61091 10.2288C0.579463 11.229 0 12.5855 0 14H1.375Z" fill="#445C3C"/>
</svg>
