<svg width="30" height="17" viewBox="0 0 30 17" fill="none" xmlns="http://www.w3.org/2000/svg">
<path d="M14.5468 14.0616L14.9008 14.4165L15.2548 14.0616L28.6362 0.647087C28.8317 0.451008 29.1542 0.451008 29.3498 0.647087C29.4492 0.746716 29.5 0.879921 29.5 1.00659C29.5 1.14301 29.4525 1.26901 29.3498 1.37197L29.7038 1.72509L29.3498 1.37197L15.2576 15.4991L15.6116 15.8522L15.2576 15.4991C15.062 15.6951 14.7395 15.6951 14.5439 15.4991L0.647284 1.56207L0.647209 1.562C0.450933 1.36523 0.450933 1.03981 0.647209 0.843049C0.842804 0.64697 1.1653 0.646971 1.36089 0.843048L14.5468 14.0616Z" fill="black" stroke="black"/>
</svg>
